<svg width="22" height="9" viewBox="0 0 22 9" fill="none" xmlns="http://www.w3.org/2000/svg">
<g clip-path="url(#clip0)">
<path d="M16.2395 8.0636L16.2366 6.41259L6.40171 6.42624L6.40461 8.07725C6.40596 8.8437 5.36416 9.22898 4.75347 8.68787L1.27762 5.60786C0.899053 5.2724 0.898096 4.72773 1.27548 4.39122L4.7405 1.30158C5.34924 0.758784 6.39243 1.14117 6.39378 1.90762L6.39667 3.55859L16.2315 3.54495L16.2286 1.89394C16.2273 1.12749 17.2691 0.742209 17.8798 1.28331L21.3556 4.36333C21.7342 4.69878 21.7351 5.24346 21.3577 5.57996L17.8927 8.66961C17.284 9.21244 16.2408 8.83005 16.2395 8.0636Z" fill="#FCC121"/>
</g>
<defs>
<clipPath id="clip0">
<rect width="20.6471" height="8" fill="white" transform="matrix(0.999999 -0.0013875 -0.00175605 -0.999999 1 9)"/>
</clipPath>
</defs>
</svg>
