<svg width="40" height="40" viewBox="0 0 40 40" fill="none" xmlns="http://www.w3.org/2000/svg">
<path d="M26.4502 4.44798L34.7302 12.728C35.0785 13.0762 35.3547 13.4896 35.5432 13.9446C35.7316 14.3995 35.8286 14.8872 35.8286 15.3796C35.8286 15.8721 35.7316 16.3597 35.5432 16.8147C35.3547 17.2697 35.0785 17.6831 34.7302 18.0313L20.2619 32.498L30.4236 32.4996C30.7259 32.4993 31.0182 32.6085 31.2462 32.807C31.4742 33.0056 31.6225 33.2801 31.6636 33.5796L31.6736 33.7496C31.6736 34.0517 31.5642 34.3435 31.3656 34.5712C31.1671 34.7988 30.8928 34.9469 30.5936 34.988L30.4236 34.9996L16.4069 35.0013C15.8807 35.0309 15.3542 34.9489 14.8619 34.7608C14.3696 34.5727 13.9226 34.2826 13.5502 33.9096L5.27024 25.628C4.92202 25.2798 4.64579 24.8664 4.45733 24.4114C4.26887 23.9564 4.17188 23.4688 4.17188 22.9763C4.17188 22.4838 4.26887 21.9962 4.45733 21.5412C4.64579 21.0863 4.92202 20.6729 5.27024 20.3246L21.1469 4.44798C21.4951 4.09975 21.9085 3.82352 22.3635 3.63507C22.8185 3.44661 23.3061 3.34961 23.7986 3.34961C24.291 3.34961 24.7787 3.44661 25.2336 3.63507C25.6886 3.82352 26.102 4.09975 26.4502 4.44798V4.44798ZM9.51524 19.613L7.03691 22.093C6.80282 22.3274 6.67134 22.6451 6.67134 22.9763C6.67134 23.3076 6.80282 23.6253 7.03691 23.8596L15.3186 32.1413C15.5619 32.3846 15.8819 32.508 16.2019 32.508L16.2502 32.4996L16.3136 32.503C16.6053 32.477 16.8786 32.3489 17.0852 32.1413L19.5636 29.663L9.51357 19.613H9.51524ZM22.9152 6.21464L11.2819 17.8446L21.3319 27.8946L32.9636 16.2646C33.0797 16.1486 33.1719 16.0107 33.2347 15.859C33.2976 15.7073 33.33 15.5447 33.33 15.3805C33.33 15.2163 33.2976 15.0536 33.2347 14.9019C33.1719 14.7502 33.0797 14.6124 32.9636 14.4963L24.6819 6.21464C24.4475 5.98056 24.1298 5.84908 23.7986 5.84908C23.4673 5.84908 23.1496 5.98056 22.9152 6.21464V6.21464Z" fill="black"/>
</svg>
