<svg width="1500" height="2400" viewBox="0 0 1500 2400" fill="none" xmlns="http://www.w3.org/2000/svg">
<rect width="1500" height="2400" fill="white"/>
<rect width="1500" height="2400" fill="#59B200"/>
<mask id="path-2-inside-1_1479_4277" fill="white">
<path d="M931 2039.5C931 1996.14 911.93 1954.55 877.986 1923.89C844.042 1893.23 798.004 1876 750 1876C701.996 1876 655.958 1893.23 622.014 1923.89C588.07 1954.55 569 1996.14 569 2039.5L750 2039.5H931Z"/>
</mask>
<path d="M931 2039.5C931 1996.14 911.93 1954.55 877.986 1923.89C844.042 1893.23 798.004 1876 750 1876C701.996 1876 655.958 1893.23 622.014 1923.89C588.07 1954.55 569 1996.14 569 2039.5L750 2039.5H931Z" stroke="white" stroke-width="24" mask="url(#path-2-inside-1_1479_4277)"/>
<mask id="path-3-inside-2_1479_4277" fill="white">
<path d="M931 365.5C931 408.863 911.93 450.45 877.986 481.112C844.042 511.774 798.004 529 750 529C701.996 529 655.958 511.774 622.014 481.112C588.07 450.45 569 408.863 569 365.5L750 365.5H931Z"/>
</mask>
<path d="M931 365.5C931 408.863 911.93 450.45 877.986 481.112C844.042 511.774 798.004 529 750 529C701.996 529 655.958 511.774 622.014 481.112C588.07 450.45 569 408.863 569 365.5L750 365.5H931Z" stroke="white" stroke-width="24" mask="url(#path-3-inside-2_1479_4277)"/>
<rect y="320" width="1500" height="133" fill="#59B200"/>
<rect y="1963" width="1500" height="117" fill="#59B200"/>
<rect x="74" y="107" width="1352" height="12" fill="white"/>
<rect x="74" y="1194" width="1352" height="12" fill="white"/>
<rect x="74" y="2285" width="1352" height="12" fill="white"/>
<rect x="74" y="107" width="12" height="2190" fill="white"/>
<rect x="330" y="480" width="20" height="44" fill="#74C0FC"/>
<rect x="330" y="550" width="20" height="44" fill="#74C0FC"/>
<rect x="330" y="620" width="20" height="44" fill="#74C0FC"/>
<rect x="330" y="690" width="20" height="44" fill="#74C0FC"/>
<rect x="330" y="760" width="20" height="44" fill="#74C0FC"/>
<rect x="330" y="830" width="20" height="44" fill="#74C0FC"/>
<rect x="330" y="900" width="20" height="44" fill="#74C0FC"/>
<rect x="330" y="970" width="20" height="44" fill="#74C0FC"/>
<rect x="330" y="1040" width="20" height="44" fill="#74C0FC"/>
<rect x="330" y="1110" width="20" height="44" fill="#74C0FC"/>
<rect x="330" y="1180" width="20" height="44" fill="#74C0FC"/>
<rect x="330" y="1250" width="20" height="44" fill="#74C0FC"/>
<rect x="330" y="1320" width="20" height="44" fill="#74C0FC"/>
<rect x="330" y="1390" width="20" height="44" fill="#74C0FC"/>
<rect x="330" y="1460" width="20" height="44" fill="#74C0FC"/>
<rect x="330" y="1530" width="20" height="44" fill="#74C0FC"/>
<rect x="330" y="1600" width="20" height="44" fill="#74C0FC"/>
<rect x="330" y="1670" width="20" height="44" fill="#74C0FC"/>
<rect x="330" y="1740" width="20" height="44" fill="#74C0FC"/>
<rect x="330" y="1810" width="20" height="44" fill="#74C0FC"/>
<rect x="330" y="1880" width="20" height="44" fill="#74C0FC"/>
<rect x="1150" y="480" width="20" height="44" fill="#74C0FC"/>
<rect x="1150" y="550" width="20" height="44" fill="#74C0FC"/>
<rect x="1150" y="620" width="20" height="44" fill="#74C0FC"/>
<rect x="1150" y="690" width="20" height="44" fill="#74C0FC"/>
<rect x="1150" y="760" width="20" height="44" fill="#74C0FC"/>
<rect x="1150" y="830" width="20" height="44" fill="#74C0FC"/>
<rect x="1150" y="900" width="20" height="44" fill="#74C0FC"/>
<rect x="1150" y="970" width="20" height="44" fill="#74C0FC"/>
<rect x="1150" y="1040" width="20" height="44" fill="#74C0FC"/>
<rect x="1150" y="1110" width="20" height="44" fill="#74C0FC"/>
<rect x="1150" y="1180" width="20" height="44" fill="#74C0FC"/>
<rect x="1150" y="1250" width="20" height="44" fill="#74C0FC"/>
<rect x="1150" y="1320" width="20" height="44" fill="#74C0FC"/>
<rect x="1150" y="1390" width="20" height="44" fill="#74C0FC"/>
<rect x="1150" y="1460" width="20" height="44" fill="#74C0FC"/>
<rect x="1150" y="1530" width="20" height="44" fill="#74C0FC"/>
<rect x="1150" y="1600" width="20" height="44" fill="#74C0FC"/>
<rect x="1150" y="1670" width="20" height="44" fill="#74C0FC"/>
<rect x="1150" y="1740" width="20" height="44" fill="#74C0FC"/>
<rect x="1150" y="1810" width="20" height="44" fill="#74C0FC"/>
<rect x="1150" y="1880" width="20" height="44" fill="#74C0FC"/>
<rect x="1414" y="107" width="12" height="2190" fill="white"/>
<rect x="330" y="1951" width="12" height="346" fill="white"/>
<rect x="1158" y="1951" width="12" height="346" fill="white"/>
<rect x="330" y="1951" width="840" height="12" fill="white"/>
<rect x="559" y="2182" width="12" height="115" fill="white"/>
<rect x="929" y="2182" width="12" height="115" fill="white"/>
<rect x="559" y="2182" width="382" height="12" fill="white"/>
<rect width="12" height="58" transform="matrix(1 0 0 -1 674 2343)" fill="white"/>
<rect width="12" height="58" transform="matrix(1 0 0 -1 815 2343)" fill="white"/>
<rect width="153" height="12" transform="matrix(1 0 0 -1 674 2343)" fill="white"/>
<circle cx="750" cy="2047" r="12" fill="white"/>
<rect width="12" height="346" transform="matrix(1 0 0 -1 330 453)" fill="white"/>
<rect width="12" height="346" transform="matrix(1 0 0 -1 1158 453)" fill="white"/>
<rect width="840" height="12" transform="matrix(1 0 0 -1 330 453)" fill="white"/>
<rect width="12" height="115" transform="matrix(1 0 0 -1 559 222)" fill="white"/>
<rect width="12" height="115" transform="matrix(1 0 0 -1 929 222)" fill="white"/>
<rect width="382" height="12" transform="matrix(1 0 0 -1 559 222)" fill="white"/>
<rect x="674" y="61" width="12" height="58" fill="white"/>
<rect x="815" y="61" width="12" height="58" fill="white"/>
<rect x="674" y="61" width="153" height="12" fill="white"/>
<circle r="12" transform="matrix(1 0 0 -1 750 357)" fill="white"/>
<mask id="path-73-inside-3_1479_4277" fill="white">
<path d="M1350 107C1350 116.98 1351.97 126.863 1355.79 136.084C1359.6 145.305 1365.2 153.683 1372.26 160.74C1379.32 167.797 1387.7 173.395 1396.92 177.215C1406.14 181.034 1416.02 183 1426 183V107H1350Z"/>
</mask>
<path d="M1350 107C1350 116.98 1351.97 126.863 1355.79 136.084C1359.6 145.305 1365.2 153.683 1372.26 160.74C1379.32 167.797 1387.7 173.395 1396.92 177.215C1406.14 181.034 1416.02 183 1426 183V107H1350Z" stroke="white" stroke-width="24" mask="url(#path-73-inside-3_1479_4277)"/>
<mask id="path-74-inside-4_1479_4277" fill="white">
<path d="M74 183C83.9805 183 93.8632 181.034 103.084 177.215C112.305 173.395 120.683 167.797 127.74 160.74C134.797 153.683 140.395 145.305 144.215 136.084C148.034 126.863 150 116.98 150 107L74 107V183Z"/>
</mask>
<path d="M74 183C83.9805 183 93.8632 181.034 103.084 177.215C112.305 173.395 120.683 167.797 127.74 160.74C134.797 153.683 140.395 145.305 144.215 136.084C148.034 126.863 150 116.98 150 107L74 107V183Z" stroke="white" stroke-width="24" mask="url(#path-74-inside-4_1479_4277)"/>
<mask id="path-75-inside-5_1479_4277" fill="white">
<path d="M150 2297C150 2287.02 148.034 2277.14 144.215 2267.92C140.395 2258.7 134.797 2250.32 127.74 2243.26C120.683 2236.2 112.305 2230.6 103.084 2226.79C93.8632 2222.97 83.9805 2221 74 2221V2297H150Z"/>
</mask>
<path d="M150 2297C150 2287.02 148.034 2277.14 144.215 2267.92C140.395 2258.7 134.797 2250.32 127.74 2243.26C120.683 2236.2 112.305 2230.6 103.084 2226.79C93.8632 2222.97 83.9805 2221 74 2221V2297H150Z" stroke="white" stroke-width="24" mask="url(#path-75-inside-5_1479_4277)"/>
<mask id="path-76-inside-6_1479_4277" fill="white">
<path d="M1426 2221C1416.02 2221 1406.14 2222.97 1396.92 2226.79C1387.7 2230.6 1379.32 2236.2 1372.26 2243.26C1365.2 2250.32 1359.6 2258.7 1355.79 2267.92C1351.97 2277.14 1350 2287.02 1350 2297H1426V2221Z"/>
</mask>
<path d="M1426 2221C1416.02 2221 1406.14 2222.97 1396.92 2226.79C1387.7 2230.6 1379.32 2236.2 1372.26 2243.26C1365.2 2250.32 1359.6 2258.7 1355.79 2267.92C1351.97 2277.14 1350 2287.02 1350 2297H1426V2221Z" stroke="white" stroke-width="24" mask="url(#path-76-inside-6_1479_4277)"/>
<circle cx="750" cy="1198" r="185" stroke="white" stroke-width="12"/>
<circle cx="750" cy="1200" r="16" fill="white"/>
</svg>
