<svg width="1500" height="2400" viewBox="0 0 1500 2400" fill="none" xmlns="http://www.w3.org/2000/svg">
<g clip-path="url(#clip0_1525_5217)">
<rect width="1500" height="2400" fill="white"/>
<rect x="1500" width="2400" height="1500" transform="rotate(90 1500 0)" fill="#59B200"/>
<rect x="1450" y="119" width="2164" height="12" transform="rotate(90 1450 119)" fill="white"/>
<rect x="80" y="119" width="2163" height="12" transform="rotate(90 80 119)" fill="white"/>
<rect x="1758" y="107" width="12" height="1690" transform="rotate(90 1758 107)" fill="white"/>
<rect x="1758" y="2282" width="12" height="1690" transform="rotate(90 1758 2282)" fill="white"/>
<rect x="592" y="689" width="12" height="524" transform="rotate(90 592 689)" fill="white"/>
<rect x="604" y="1701" width="12" height="536" transform="rotate(90 604 1701)" fill="white"/>
<rect x="604" y="689" width="1012" height="12" transform="rotate(90 604 689)" fill="white"/>
<rect x="263" y="939" width="12" height="195" transform="rotate(90 263 939)" fill="white"/>
<rect x="263" y="1451" width="12" height="195" transform="rotate(90 263 1451)" fill="white"/>
<rect x="263" y="939" width="512" height="12" transform="rotate(90 263 939)" fill="white"/>
<rect width="12" height="58" transform="matrix(0 1 1 0 22 1047)" fill="white"/>
<rect width="12" height="58" transform="matrix(0 1 1 0 22 1344)" fill="white"/>
<rect width="297" height="12" transform="matrix(0 1 1 0 22 1047)" fill="white"/>
<circle cx="448" cy="1201" r="12" transform="rotate(90 448 1201)" fill="white"/>
<mask id="path-16-inside-1_1525_5217" fill="white">
<path d="M592 1382C635.363 1382 676.95 1362.93 707.612 1328.99C738.274 1295.04 755.5 1249 755.5 1201C755.5 1153 738.274 1106.96 707.612 1073.01C676.95 1039.07 635.363 1020 592 1020L592 1201V1382Z"/>
</mask>
<path d="M592 1382C635.363 1382 676.95 1362.93 707.612 1328.99C738.274 1295.04 755.5 1249 755.5 1201C755.5 1153 738.274 1106.96 707.612 1073.01C676.95 1039.07 635.363 1020 592 1020L592 1201V1382Z" stroke="white" stroke-width="24" mask="url(#path-16-inside-1_1525_5217)"/>
<mask id="path-17-inside-2_1525_5217" fill="white">
<path d="M68 184C77.9805 184 87.8632 182.034 97.0839 178.215C106.305 174.395 114.683 168.797 121.74 161.74C128.797 154.683 134.395 146.305 138.215 137.084C142.034 127.863 144 117.98 144 108L68 108L68 184Z"/>
</mask>
<path d="M68 184C77.9805 184 87.8632 182.034 97.0839 178.215C106.305 174.395 114.683 168.797 121.74 161.74C128.797 154.683 134.395 146.305 138.215 137.084C142.034 127.863 144 117.98 144 108L68 108L68 184Z" stroke="white" stroke-width="24" mask="url(#path-17-inside-2_1525_5217)"/>
<mask id="path-18-inside-3_1525_5217" fill="white">
<path d="M144 2293C144 2283.02 142.034 2273.14 138.215 2263.92C134.395 2254.7 128.797 2246.32 121.74 2239.26C114.683 2232.2 106.305 2226.6 97.0839 2222.79C87.8632 2218.97 77.9805 2217 68 2217L68 2293H144Z"/>
</mask>
<path d="M144 2293C144 2283.02 142.034 2273.14 138.215 2263.92C134.395 2254.7 128.797 2246.32 121.74 2239.26C114.683 2232.2 106.305 2226.6 97.0839 2222.79C87.8632 2218.97 77.9805 2217 68 2217L68 2293H144Z" stroke="white" stroke-width="24" mask="url(#path-18-inside-3_1525_5217)"/>
<rect x="624" y="1693" width="44" height="20" fill="#74C0FC"/>
<rect x="694" y="1693" width="44" height="20" fill="#74C0FC"/>
<rect x="764" y="1693" width="44" height="20" fill="#74C0FC"/>
<rect x="834" y="1693" width="44" height="20" fill="#74C0FC"/>
<rect x="904" y="1693" width="44" height="20" fill="#74C0FC"/>
<rect x="974" y="1693" width="44" height="20" fill="#74C0FC"/>
<rect x="1044" y="1693" width="44" height="20" fill="#74C0FC"/>
<rect x="1114" y="1693" width="44" height="20" fill="#74C0FC"/>
<rect x="1184" y="1693" width="44" height="20" fill="#74C0FC"/>
<rect x="1254" y="1693" width="44" height="20" fill="#74C0FC"/>
<rect x="1324" y="1693" width="44" height="20" fill="#74C0FC"/>
<rect x="1394" y="1693" width="44" height="20" fill="#74C0FC"/>
<rect x="624" y="689" width="44" height="20" fill="#74C0FC"/>
<rect x="694" y="689" width="44" height="20" fill="#74C0FC"/>
<rect x="764" y="689" width="44" height="20" fill="#74C0FC"/>
<rect x="834" y="689" width="44" height="20" fill="#74C0FC"/>
<rect x="904" y="689" width="44" height="20" fill="#74C0FC"/>
<rect x="974" y="689" width="44" height="20" fill="#74C0FC"/>
<rect x="1044" y="689" width="44" height="20" fill="#74C0FC"/>
<rect x="1114" y="689" width="44" height="20" fill="#74C0FC"/>
<rect x="1184" y="689" width="44" height="20" fill="#74C0FC"/>
<rect x="1254" y="689" width="44" height="20" fill="#74C0FC"/>
<rect x="1324" y="689" width="44" height="20" fill="#74C0FC"/>
<rect x="1394" y="689" width="44" height="20" fill="#74C0FC"/>
</g>
<defs>
<clipPath id="clip0_1525_5217">
<rect width="1500" height="2400" fill="white"/>
</clipPath>
</defs>
</svg>
