<svg width="23" height="23" viewBox="0 0 23 23" fill="none" xmlns="http://www.w3.org/2000/svg">
<path d="M13.4065 11.4986L22.519 2.38612C22.7238 2.14699 22.8308 1.8394 22.8186 1.5248C22.8065 1.21021 22.6761 0.911782 22.4535 0.689164C22.2308 0.466546 21.9324 0.33613 21.6178 0.323978C21.3032 0.311827 20.9956 0.418835 20.7565 0.623618L11.644 9.73612L2.53151 0.611118C2.29238 0.406335 1.98479 0.299328 1.67019 0.311479C1.3556 0.323631 1.05717 0.454045 0.834556 0.676664C0.611938 0.899282 0.481522 1.19771 0.469371 1.5123C0.457219 1.8269 0.564227 2.13449 0.76901 2.37362L9.88151 11.4986L0.75651 20.6111C0.625658 20.7232 0.519382 20.8611 0.444353 21.0162C0.369324 21.1712 0.327161 21.3402 0.320512 21.5123C0.313862 21.6845 0.34287 21.8561 0.405713 22.0165C0.468556 22.1769 0.563879 22.3226 0.685697 22.4444C0.807516 22.5662 0.9532 22.6616 1.11361 22.7244C1.27401 22.7873 1.44568 22.8163 1.61783 22.8096C1.78998 22.803 1.95889 22.7608 2.11397 22.6858C2.26905 22.6107 2.40695 22.5045 2.51901 22.3736L11.644 13.2611L20.7565 22.3736C20.9956 22.5784 21.3032 22.6854 21.6178 22.6733C21.9324 22.6611 22.2308 22.5307 22.4535 22.3081C22.6761 22.0855 22.8065 21.787 22.8186 21.4724C22.8308 21.1578 22.7238 20.8502 22.519 20.6111L13.4065 11.4986Z" fill="black"/>
</svg>
