<svg width="25" height="26" viewBox="0 0 25 26" fill="none" xmlns="http://www.w3.org/2000/svg">
<path d="M10.6956 2.11607C11.1644 0.237351 13.8355 0.237351 14.3043 2.11607L19.7079 23.7307H23.6607C23.9073 23.7307 24.1439 23.8286 24.3183 24.0031C24.4927 24.1775 24.5907 24.414 24.5907 24.6607C24.5907 24.9074 24.4927 25.1439 24.3183 25.3184C24.1439 25.4928 23.9073 25.5908 23.6607 25.5908H1.33924C1.09257 25.5908 0.856008 25.4928 0.681588 25.3184C0.507168 25.1439 0.40918 24.9074 0.40918 24.6607C0.40918 24.414 0.507168 24.1775 0.681588 24.0031C0.856008 23.8286 1.09257 23.7307 1.33924 23.7307H5.29199L10.6956 2.11607Z" fill="black"/>
</svg>
