<svg width="12" height="27" viewBox="0 0 12 27" fill="none" xmlns="http://www.w3.org/2000/svg">
<path d="M6.14411 2.75C6.64139 2.75 7.11831 2.94754 7.46994 3.29917C7.82157 3.65081 8.01911 4.12772 8.01911 4.625C8.01911 5.12228 7.82157 5.59919 7.46994 5.95083C7.11831 6.30246 6.64139 6.5 6.14411 6.5C5.64683 6.5 5.16992 6.30246 4.81829 5.95083C4.46666 5.59919 4.26911 5.12228 4.26911 4.625C4.26911 4.12772 4.46666 3.65081 4.81829 3.29917C5.16992 2.94754 5.64683 2.75 6.14411 2.75ZM6.14411 0.875C5.14955 0.875 4.19572 1.27009 3.49246 1.97335C2.7892 2.67661 2.39411 3.63044 2.39411 4.625C2.39411 5.61956 2.7892 6.57339 3.49246 7.27665C4.19572 7.97991 5.14955 8.375 6.14411 8.375C7.13868 8.375 8.0925 7.97991 8.79576 7.27665C9.49902 6.57339 9.89411 5.61956 9.89411 4.625C9.89411 3.63044 9.49902 2.67661 8.79576 1.97335C8.0925 1.27009 7.13868 0.875 6.14411 0.875ZM8.45036 9.29375H3.83786C2.95768 9.29375 2.11354 9.6434 1.49115 10.2658C0.868768 10.8882 0.519115 11.7323 0.519115 12.6125V17.5625C0.498625 18.0835 0.683704 18.5917 1.03445 18.9775C1.38519 19.3634 1.87351 19.5959 2.39411 19.625V23.9937C2.39411 24.5905 2.63117 25.1628 3.05312 25.5847C3.47508 26.0067 4.04738 26.2437 4.64411 26.2437H7.64411C7.94601 26.2439 8.24485 26.1833 8.52283 26.0656C8.80082 25.9479 9.05228 25.7754 9.26222 25.5584C9.47216 25.3415 9.6363 25.0845 9.74486 24.8028C9.85342 24.5211 9.90418 24.2205 9.89411 23.9188V19.625C10.4147 19.5959 10.903 19.3634 11.2538 18.9775C11.6045 18.5917 11.7896 18.0835 11.7691 17.5625V12.6125C11.7691 11.7323 11.4195 10.8882 10.7971 10.2658C10.1747 9.6434 9.33055 9.29375 8.45036 9.29375ZM2.39411 17.75V12.6125C2.39159 12.4222 2.42722 12.2333 2.49888 12.057C2.57054 11.8807 2.67679 11.7206 2.81136 11.586C2.94593 11.4514 3.10609 11.3452 3.2824 11.2735C3.4587 11.2019 3.64757 11.1662 3.83786 11.1687H8.45036C8.64066 11.1662 8.82953 11.2019 9.00583 11.2735C9.18213 11.3452 9.3423 11.4514 9.47687 11.586C9.61143 11.7206 9.71769 11.8807 9.78935 12.057C9.86101 12.2333 9.89663 12.4222 9.89411 12.6125V17.75H8.01911V23.9563C8.01911 24.0557 7.9796 24.1511 7.90928 24.2214C7.83895 24.2917 7.74357 24.3313 7.64411 24.3313H4.64411C4.54466 24.3313 4.44927 24.2917 4.37895 24.2214C4.30862 24.1511 4.26911 24.0557 4.26911 23.9563V17.75H2.39411Z" fill="black"/>
</svg>
