<svg width="37" height="37" viewBox="0 0 37 21" fill="none" xmlns="http://www.w3.org/2000/svg">
<mask id="path-1-inside-1" fill="white">
<path d="M31 15.5C31 11.3891 29.367 7.44666 26.4602 4.53985C23.5533 1.63303 19.6109 3.10361e-07 15.5 0C11.3891 -3.10361e-07 7.44666 1.63303 4.53985 4.53984C1.63303 7.44666 6.20722e-07 11.3891 0 15.5L15.5 15.5H31Z"/>
</mask>
<path d="M31 15.5C31 11.3891 29.367 7.44666 26.4602 4.53985C23.5533 1.63303 19.6109 3.10361e-07 15.5 0C11.3891 -3.10361e-07 7.44666 1.63303 4.53985 4.53984C1.63303 7.44666 6.20722e-07 11.3891 0 15.5L15.5 15.5H31Z" stroke="black" stroke-width="4" mask="url(#path-1-inside-1)"/>
<path d="M11 1C11 2.06087 11.4741 3.07828 12.318 3.82843C13.1619 4.57857 14.3065 5 15.5 5C16.6935 5 17.8381 4.57857 18.682 3.82843C19.5259 3.07828 20 2.06087 20 1" stroke="black" stroke-width="4"/>
</svg>
