<svg width="27" height="31" viewBox="0 0 27 31" fill="none" xmlns="http://www.w3.org/2000/svg">
<path d="M18.4578 30.2898C17.6139 30.2931 16.7881 30.0452 16.0856 29.5775C15.3831 29.1099 14.8357 28.4438 14.5131 27.664C14.1905 26.8842 14.1074 26.026 14.2742 25.1987C14.441 24.3715 14.8503 23.6126 15.4499 23.0188L21.8384 16.6179C22.0267 16.4609 22.1803 16.2663 22.2892 16.0467C22.3981 15.827 22.4601 15.5871 22.4712 15.3421C22.4823 15.0972 22.4422 14.8526 22.3535 14.624C22.2648 14.3954 22.1294 14.1878 21.9561 14.0145C21.7827 13.8411 21.5751 13.7057 21.3465 13.617C21.1179 13.5284 20.8734 13.4883 20.6284 13.4993C20.3835 13.5104 20.1435 13.5724 19.9239 13.6813C19.7042 13.7903 19.5097 13.9438 19.3526 14.1321L10.8264 22.6459C10.0161 23.4245 8.93601 23.8593 7.81233 23.8593C6.68865 23.8593 5.60856 23.4245 4.79831 22.6459C4.00289 21.847 3.55633 20.7655 3.55633 19.6381C3.55633 18.5107 4.00289 17.4293 4.79831 16.6303L15.4624 5.96626C15.6507 5.80922 15.8042 5.61468 15.9131 5.39502C16.0221 5.17536 16.0841 4.93542 16.0951 4.69048C16.1062 4.44554 16.0661 4.20098 15.9774 3.97239C15.8887 3.7438 15.7534 3.5362 15.58 3.36283C15.4066 3.18945 15.199 3.0541 14.9704 2.96541C14.7419 2.87672 14.4973 2.83663 14.2524 2.84769C14.0074 2.85876 13.7675 2.92074 13.5478 3.02969C13.3282 3.13864 13.1336 3.29216 12.9766 3.48046L2.63566 13.7592L0.883179 12.0192L11.1868 1.70312C11.9984 0.968461 13.0615 0.57418 14.1559 0.60196C15.2503 0.629741 16.292 1.07746 17.0653 1.85234C17.8386 2.62723 18.2842 3.66991 18.3097 4.76434C18.3352 5.85877 17.9388 6.92108 17.2024 7.73117L6.55079 18.3828C6.22291 18.7134 6.03893 19.1601 6.03893 19.6257C6.03893 20.0913 6.22291 20.538 6.55079 20.8686C6.8859 21.1877 7.33093 21.3658 7.79369 21.3658C8.25645 21.3658 8.70148 21.1877 9.03659 20.8686L17.5629 12.3423C17.9503 11.9143 18.4206 11.5695 18.9453 11.3287C19.47 11.0879 20.0382 10.9561 20.6153 10.9415C21.1924 10.9268 21.7665 11.0296 22.3028 11.2434C22.839 11.4573 23.3262 11.7778 23.7349 12.1856C24.1435 12.5934 24.4651 13.08 24.68 13.6158C24.895 14.1516 24.9989 14.7255 24.9855 15.3026C24.972 15.8798 24.8414 16.4482 24.6017 16.9734C24.362 17.4986 24.0181 17.9696 23.5909 18.3579L17.19 24.7589C16.9079 25.0972 16.7624 25.5288 16.7823 25.9689C16.8022 26.409 16.986 26.8257 17.2975 27.1372C17.609 27.4487 18.0257 27.6325 18.4658 27.6523C18.9059 27.6722 19.3375 27.5268 19.6758 27.2447L25.1943 21.7386L26.984 23.5284L21.4656 29.0469C21.0721 29.4437 20.6034 29.758 20.0869 29.9714C19.5704 30.1848 19.0166 30.2931 18.4578 30.2898Z" fill="black"/>
</svg>
