<svg width="37" height="37" viewBox="0 0 37 37" fill="none" xmlns="http://www.w3.org/2000/svg">
<mask id="path-1-inside-1_1525_6282" fill="white">
<path d="M37 18.5C37 13.5935 35.0509 8.88795 31.5815 5.41853C28.1121 1.9491 23.4065 3.70431e-07 18.5 0C13.5935 -3.70431e-07 8.88795 1.9491 5.41853 5.41852C1.9491 8.88795 7.40862e-07 13.5935 0 18.5L18.5 18.5H37Z"/>
</mask>
<path d="M37 18.5C37 13.5935 35.0509 8.88795 31.5815 5.41853C28.1121 1.9491 23.4065 3.70431e-07 18.5 0C13.5935 -3.70431e-07 8.88795 1.9491 5.41853 5.41852C1.9491 8.88795 7.40862e-07 13.5935 0 18.5L18.5 18.5H37Z" fill="white" stroke="#FCC419" stroke-width="8" mask="url(#path-1-inside-1_1525_6282)"/>
<path d="M13.1289 4.19358C13.1289 5.45977 13.6948 6.67411 14.702 7.56944C15.7093 8.46478 17.0754 8.96777 18.4999 8.96777C19.9244 8.96777 21.2905 8.46478 22.2977 7.56944C23.305 6.67411 23.8708 5.45978 23.8708 4.19358" stroke="#FCC419" stroke-width="4"/>
</svg>
