<svg width="31" height="43" viewBox="0 0 31 43" fill="none" xmlns="http://www.w3.org/2000/svg">
<rect width="29.5362" height="43" transform="translate(0.731934)" fill="white"/>
<path d="M0.731934 1.9775L0.731934 41.0225C0.731934 42.1129 1.61903 43 2.70943 43L28.2906 43C29.381 43 30.2681 42.1129 30.2681 41.0225L30.2681 1.9775C30.2681 0.887096 29.381 3.20375e-07 28.2906 3.20375e-07L2.70943 3.20375e-07C1.61903 3.20375e-07 0.731934 0.887096 0.731934 1.9775ZM10.1566 4.67025C10.1566 5.38947 10.7417 5.97456 11.4609 5.97456L19.5392 5.97456C20.2584 5.97456 20.8435 5.38947 20.8435 4.67025V1.26223H22.9472V6.68982C22.9472 7.45541 22.3243 8.07828 21.5587 8.07828L9.44133 8.07828C8.67574 8.07828 8.05287 7.45541 8.05287 6.68982V1.26223H10.1566L10.1566 4.67025ZM11.4188 1.26223L19.5812 1.26223V4.67025C19.5812 4.69188 19.5608 4.71233 19.5392 4.71233L11.4609 4.71233C11.4393 4.71233 11.4188 4.69188 11.4188 4.67025L11.4188 1.26223ZM20.2113 22.1311C19.9014 24.4552 17.9075 26.2544 15.5 26.2544C13.0925 26.2544 11.0986 24.4552 10.7888 22.1311H20.2113ZM10.7888 20.8689C11.0986 18.5448 13.0925 16.7456 15.5 16.7456C17.9075 16.7456 19.9014 18.5448 20.2113 20.8689H10.7888ZM11.4188 41.7378L11.4188 38.3297C11.4188 38.3081 11.4393 38.2877 11.4609 38.2877H19.5392C19.5608 38.2877 19.5812 38.3081 19.5812 38.3297V41.7378H11.4188ZM20.8435 41.7378V38.3297C20.8435 37.6105 20.2584 37.0254 19.5392 37.0254H11.4609C10.7417 37.0254 10.1566 37.6105 10.1566 38.3297L10.1566 41.7378H8.05287V36.3102C8.05287 35.5446 8.67574 34.9217 9.44133 34.9217H21.5587C22.3243 34.9217 22.9472 35.5446 22.9472 36.3102V41.7378H20.8435ZM28.2906 41.7378H24.2094V36.3102C24.2094 34.8486 23.0203 33.6595 21.5587 33.6595H9.44133C7.97975 33.6595 6.79064 34.8486 6.79064 36.3102L6.79064 41.7378H2.70943C2.31502 41.7378 1.99416 41.4169 1.99416 41.0225L1.99416 22.1311H9.51664C9.83312 25.1531 12.3955 27.5166 15.5 27.5166C18.6045 27.5166 21.1669 25.1531 21.4834 22.1311L29.0059 22.1311L29.0059 41.0225C29.0059 41.4169 28.685 41.7378 28.2906 41.7378ZM29.0059 1.9775L29.0059 20.8689L21.4834 20.8689C21.1669 17.8469 18.6045 15.4834 15.5 15.4834C12.3955 15.4834 9.83312 17.8469 9.51664 20.8689H1.99416L1.99416 1.9775C1.99416 1.58309 2.31502 1.26223 2.70943 1.26223H6.79064L6.79064 6.68982C6.79064 8.1514 7.97975 9.34051 9.44133 9.34051L21.5587 9.34051C23.0203 9.34051 24.2094 8.1514 24.2094 6.68982V1.26223H28.2906C28.685 1.26223 29.0059 1.58309 29.0059 1.9775Z" fill="black"/>
</svg>
