<svg width="30" height="43" viewBox="0 0 30 43" fill="none" xmlns="http://www.w3.org/2000/svg">
<rect width="29.5362" height="43" fill="white"/>
<rect width="28" height="5" transform="matrix(-1 0 0 1 29 4)" fill="#EDEDED"/>
<rect width="28" height="5" transform="matrix(-1 0 0 1 29 14)" fill="#EDEDED"/>
<rect width="28" height="5" transform="matrix(-1 0 0 1 29 24)" fill="#EDEDED"/>
<rect width="28" height="5" transform="matrix(-1 0 0 1 29 34)" fill="#EDEDED"/>
<path d="M0 1.9775L0 41.0225C0 42.1129 0.887096 43 1.9775 43L27.5587 43C28.6491 43 29.5362 42.1129 29.5362 41.0225L29.5362 1.9775C29.5362 0.887096 28.6491 3.20375e-07 27.5587 3.20375e-07L1.9775 3.20375e-07C0.887096 3.20375e-07 0 0.887096 0 1.9775ZM9.42466 4.67025C9.42466 5.38947 10.0097 5.97456 10.729 5.97456L18.8072 5.97456C19.5265 5.97456 20.1115 5.38947 20.1115 4.67025V1.26223H22.2153V6.68982C22.2153 7.45541 21.5924 8.07828 20.8268 8.07828L8.70939 8.07828C7.94381 8.07828 7.32094 7.45541 7.32094 6.68982L7.32094 1.26223H9.42466L9.42466 4.67025ZM10.6869 1.26223L18.8493 1.26223V4.67025C18.8493 4.69188 18.8289 4.71233 18.8072 4.71233L10.729 4.71233C10.7073 4.71233 10.6869 4.69188 10.6869 4.67025L10.6869 1.26223ZM19.4793 22.1311C19.1695 24.4552 17.1756 26.2544 14.7681 26.2544C12.3606 26.2544 10.3667 24.4552 10.0569 22.1311H19.4793ZM10.0569 20.8689C10.3667 18.5448 12.3606 16.7456 14.7681 16.7456C17.1756 16.7456 19.1695 18.5448 19.4793 20.8689H10.0569ZM10.6869 41.7378L10.6869 38.3297C10.6869 38.3081 10.7073 38.2877 10.729 38.2877H18.8072C18.8289 38.2877 18.8493 38.3081 18.8493 38.3297V41.7378H10.6869ZM20.1115 41.7378V38.3297C20.1115 37.6105 19.5265 37.0254 18.8072 37.0254H10.729C10.0097 37.0254 9.42466 37.6105 9.42466 38.3297L9.42466 41.7378H7.32094L7.32094 36.3102C7.32094 35.5446 7.94381 34.9217 8.70939 34.9217H20.8268C21.5924 34.9217 22.2153 35.5446 22.2153 36.3102V41.7378H20.1115ZM27.5587 41.7378H23.4775V36.3102C23.4775 34.8486 22.2884 33.6595 20.8268 33.6595H8.70939C7.24781 33.6595 6.05871 34.8486 6.05871 36.3102L6.05871 41.7378H1.9775C1.58309 41.7378 1.26223 41.4169 1.26223 41.0225L1.26223 22.1311H8.78471C9.10119 25.1531 11.6636 27.5166 14.7681 27.5166C17.8726 27.5166 20.435 25.1531 20.7515 22.1311L28.274 22.1311L28.274 41.0225C28.274 41.4169 27.9531 41.7378 27.5587 41.7378ZM28.274 1.9775L28.274 20.8689L20.7515 20.8689C20.435 17.8469 17.8726 15.4834 14.7681 15.4834C11.6636 15.4834 9.10119 17.8469 8.78471 20.8689H1.26223L1.26223 1.9775C1.26223 1.58309 1.58309 1.26223 1.9775 1.26223H6.05871L6.05871 6.68982C6.05871 8.1514 7.24781 9.34051 8.70939 9.34051L20.8268 9.34051C22.2884 9.34051 23.4775 8.1514 23.4775 6.68982V1.26223H27.5587C27.9531 1.26223 28.274 1.58309 28.274 1.9775Z" fill="black"/>
</svg>
