<svg width="32" height="32" viewBox="0 0 32 32" fill="none" xmlns="http://www.w3.org/2000/svg">
<path d="M16 0.765625C7.59985 0.765625 0.765625 7.59985 0.765625 16C0.765625 24.4001 7.59985 31.2344 16 31.2344C24.4001 31.2344 31.2344 24.4001 31.2344 16C31.2344 7.59985 24.4001 0.765625 16 0.765625ZM26.4736 23.0312H23.1616C23.059 23.031 22.9582 23.0038 22.8694 22.9524C22.7806 22.901 22.7068 22.8272 22.6555 22.7383L21.4734 20.7109C21.3956 20.5784 21.3729 20.4206 21.4104 20.2715L22.4988 15.8828C22.5206 15.7944 22.5628 15.7123 22.6219 15.643C22.681 15.5737 22.7555 15.5191 22.8394 15.4836L24.8975 14.6121C24.998 14.5694 25.1085 14.5557 25.2165 14.5726C25.3244 14.5894 25.4255 14.636 25.5083 14.7073L28.5574 17.3308C28.6325 17.3955 28.69 17.4783 28.7245 17.5713C28.759 17.6643 28.7692 17.7645 28.7544 17.8625C28.5019 19.595 27.8966 21.2572 26.9761 22.7463C26.9241 22.8332 26.8505 22.9051 26.7624 22.955C26.6743 23.0049 26.5749 23.0312 26.4736 23.0312ZM7.10254 14.6179L9.16064 15.4895C9.24453 15.525 9.31899 15.5795 9.37811 15.6488C9.43723 15.7181 9.47938 15.8002 9.50122 15.8887L10.5896 20.2773C10.6271 20.4264 10.6044 20.5842 10.5266 20.7168L9.34448 22.7383C9.29317 22.8272 9.21941 22.901 9.13059 22.9524C9.04177 23.0038 8.94101 23.031 8.83838 23.0312H5.52637C5.4262 23.0313 5.32768 23.0057 5.24023 22.9568C5.15278 22.908 5.07932 22.8375 5.02686 22.7522C4.1063 21.263 3.50105 19.6008 3.24854 17.8684C3.23369 17.7703 3.24398 17.6701 3.27844 17.5771C3.3129 17.4841 3.3704 17.4014 3.44556 17.3367L6.49463 14.7131C6.57716 14.6425 6.67773 14.5961 6.78508 14.5793C6.89243 14.5625 7.00235 14.5759 7.10254 14.6179ZM25.9214 8.22827L24.5979 11.9915C24.5713 12.0684 24.529 12.1389 24.4736 12.1985C24.4183 12.2582 24.3511 12.3056 24.2764 12.3379L22.1099 13.2556C22.0104 13.2977 21.9013 13.3115 21.7946 13.2954C21.6878 13.2794 21.5876 13.2342 21.5049 13.1648L17.3843 9.7085C17.3184 9.65402 17.2653 9.5858 17.2286 9.50862C17.1919 9.43144 17.1726 9.34717 17.1719 9.26172V6.80225C17.1719 6.70588 17.1958 6.61101 17.2412 6.52606C17.2867 6.4411 17.3525 6.36867 17.4326 6.31519L20.5696 4.22485C20.6514 4.17021 20.7458 4.13707 20.8438 4.12849C20.9419 4.11992 21.0405 4.13618 21.1306 4.17578C22.9356 4.96304 24.5375 6.15133 25.8145 7.65039C25.8816 7.72877 25.9268 7.82348 25.9456 7.92495C25.9644 8.02643 25.956 8.13106 25.9214 8.22827ZM11.4297 4.22485L14.5674 6.31519C14.6475 6.36867 14.7133 6.4411 14.7588 6.52606C14.8042 6.61101 14.8281 6.70588 14.8281 6.80225V9.26172C14.8281 9.34731 14.8094 9.43187 14.7732 9.50944C14.737 9.587 14.6842 9.6557 14.6187 9.71069L10.498 13.167C10.4154 13.2364 10.3151 13.2816 10.2084 13.2976C10.1016 13.3137 9.99249 13.2999 9.89307 13.2578L7.72363 12.3379C7.64845 12.3061 7.58075 12.2589 7.52487 12.1993C7.469 12.1398 7.42618 12.0692 7.39917 11.9922L6.07568 8.229C6.04129 8.13144 6.03334 8.02652 6.05264 7.92489C6.07193 7.82326 6.11779 7.72855 6.18555 7.65039C7.46326 6.14982 9.06642 4.96047 10.873 4.17285C10.9628 4.13446 11.0608 4.1191 11.158 4.12818C11.2552 4.13727 11.3486 4.1705 11.4297 4.22485ZM12.6975 28.2087L11.2524 24.5693C11.2194 24.4866 11.2057 24.3974 11.2123 24.3086C11.2189 24.2197 11.2456 24.1336 11.2905 24.0566L12.4016 22.1523C12.4529 22.0635 12.5267 21.9896 12.6155 21.9382C12.7043 21.8868 12.8051 21.8596 12.9077 21.8594H19.0923C19.1949 21.8596 19.2957 21.8868 19.3845 21.9382C19.4733 21.9896 19.5471 22.0635 19.5984 22.1523L20.7102 24.0566C20.7552 24.1335 20.7821 24.2197 20.7889 24.3085C20.7956 24.3973 20.782 24.4866 20.749 24.5693L19.3142 28.2073C19.2791 28.2962 19.2228 28.3752 19.1502 28.4374C19.0775 28.4996 18.9908 28.543 18.8975 28.564C16.9935 29.0009 15.0153 29.0009 13.1113 28.564C13.0187 28.5427 12.9327 28.4993 12.8606 28.4374C12.7885 28.3755 12.7325 28.2971 12.6975 28.2087Z" fill="black"/>
</svg>
