<svg width="31" height="43" viewBox="0 0 31 43" fill="none" xmlns="http://www.w3.org/2000/svg">
<g clip-path="url(#clip0_1525_5209)">
<rect width="30" height="43" transform="translate(0.268066)" fill="white"/>
<rect x="0.768066" y="0.5" width="29" height="42" rx="1.5" fill="white" stroke="black"/>
<mask id="path-2-inside-1_1525_5209" fill="white">
<path d="M21.4572 25.8263C23.1099 25.8315 24.6972 25.2264 25.8698 24.1441C27.0424 23.0618 27.7044 21.5909 27.71 20.055C27.7156 18.5192 27.0645 17.0441 25.8998 15.9544C24.7352 14.8647 23.1524 14.2496 21.4997 14.2443L21.4784 20.0353L21.4572 25.8263Z"/>
</mask>
<path d="M21.4572 25.8263C23.1099 25.8315 24.6972 25.2264 25.8698 24.1441C27.0424 23.0618 27.7044 21.5909 27.71 20.055C27.7156 18.5192 27.0645 17.0441 25.8998 15.9544C24.7352 14.8647 23.1524 14.2496 21.4997 14.2443L21.4784 20.0353L21.4572 25.8263Z" stroke="black" mask="url(#path-2-inside-1_1525_5209)"/>
<path d="M0.768066 2.5H20.2681C21.0965 2.5 21.7681 3.17157 21.7681 4V36C21.7681 36.8284 21.0965 37.5 20.2681 37.5H0.768066V2.5Z" stroke="black"/>
<path d="M0.768066 12.5H9.26807C10.0965 12.5 10.7681 13.1716 10.7681 14V26C10.7681 26.8284 10.0965 27.5 9.26807 27.5H0.768066V12.5Z" stroke="black"/>
<circle r="0.5" transform="matrix(1 0 0 -1 7.76807 20)" fill="black"/>
</g>
<defs>
<clipPath id="clip0_1525_5209">
<rect width="30" height="43" fill="white" transform="translate(0.268066)"/>
</clipPath>
</defs>
</svg>
