<svg width="31" height="43" viewBox="0 0 31 43" fill="none" xmlns="http://www.w3.org/2000/svg">
<g clip-path="url(#clip0_1525_5307)">
<rect width="30" height="43" transform="translate(0.268066)" fill="white"/>
<rect x="0.768066" y="0.5" width="29" height="42" rx="1.5" fill="white" stroke="black"/>
<mask id="path-2-inside-1_1525_5307" fill="white">
<path d="M10.2577 24.0062C11.0552 24.0089 11.821 23.6947 12.3868 23.1328C12.9526 22.5708 13.272 21.8071 13.2747 21.0097C13.2774 20.2122 12.9633 19.4464 12.4013 18.8806C11.8394 18.3148 11.0757 17.9954 10.2782 17.9927L10.268 20.9994L10.2577 24.0062Z"/>
</mask>
<path d="M10.2577 24.0062C11.0552 24.0089 11.821 23.6947 12.3868 23.1328C12.9526 22.5708 13.272 21.8071 13.2747 21.0097C13.2774 20.2122 12.9633 19.4464 12.4013 18.8806C11.8394 18.3148 11.0757 17.9954 10.2782 17.9927L10.268 20.9994L10.2577 24.0062Z" stroke="black" mask="url(#path-2-inside-1_1525_5307)"/>
<path d="M0.768066 12.5H9.26807C10.0965 12.5 10.7681 13.1716 10.7681 14V29C10.7681 29.8284 10.0965 30.5 9.26807 30.5H0.768066V12.5Z" stroke="black"/>
<path d="M0.768066 17.5H3.26807C4.09649 17.5 4.76807 18.1716 4.76807 19V24C4.76807 24.8284 4.09649 25.5 3.26807 25.5H0.768066V17.5Z" stroke="black"/>
<circle r="0.5" transform="matrix(1 0 0 -1 7.76807 21.5)" fill="black"/>
<line x1="9.26807" y1="12.5" x2="29.2681" y2="12.5" stroke="black"/>
<line x1="9.26807" y1="30.5" x2="29.2681" y2="30.5" stroke="black"/>
</g>
<defs>
<clipPath id="clip0_1525_5307">
<rect width="30" height="43" fill="white" transform="translate(0.268066)"/>
</clipPath>
</defs>
</svg>
