<svg width="30" height="43" viewBox="0 0 30 43" fill="none" xmlns="http://www.w3.org/2000/svg">
<g clip-path="url(#clip0_1525_6238)">
<rect width="30" height="43" fill="white"/>
<rect x="0.5" y="0.5" width="29" height="42" rx="1.5" fill="white" stroke="black"/>
<rect x="2" y="1" width="5" height="41" fill="#EDEDED"/>
<rect x="12" y="1" width="5" height="41" fill="#EDEDED"/>
<rect x="22" y="1" width="5" height="41" fill="#EDEDED"/>
<mask id="path-5-inside-1_1525_6238" fill="white">
<path d="M30 14C28.1435 14 26.363 14.7375 25.0503 16.0503C23.7375 17.363 23 19.1435 23 21C23 22.8565 23.7375 24.637 25.0503 25.9497C26.363 27.2625 28.1435 28 30 28L30 21L30 14Z"/>
</mask>
<path d="M30 14C28.1435 14 26.363 14.7375 25.0503 16.0503C23.7375 17.363 23 19.1435 23 21C23 22.8565 23.7375 24.637 25.0503 25.9497C26.363 27.2625 28.1435 28 30 28L30 21L30 14Z" stroke="black" stroke-width="2" mask="url(#path-5-inside-1_1525_6238)"/>
<mask id="path-6-inside-2_1525_6238" fill="white">
<path d="M9.98967 24.0062C10.7871 24.0089 11.553 23.6947 12.1188 23.1328C12.6846 22.5708 13.0039 21.8071 13.0067 21.0097C13.0094 20.2122 12.6952 19.4464 12.1333 18.8806C11.5713 18.3148 10.8076 17.9954 10.0102 17.9927L9.99992 20.9994L9.98967 24.0062Z"/>
</mask>
<path d="M9.98967 24.0062C10.7871 24.0089 11.553 23.6947 12.1188 23.1328C12.6846 22.5708 13.0039 21.8071 13.0067 21.0097C13.0094 20.2122 12.6952 19.4464 12.1333 18.8806C11.5713 18.3148 10.8076 17.9954 10.0102 17.9927L9.99992 20.9994L9.98967 24.0062Z" stroke="black" mask="url(#path-6-inside-2_1525_6238)"/>
<path d="M0.5 12.5H9C9.82843 12.5 10.5 13.1716 10.5 14V29C10.5 29.8284 9.82843 30.5 9 30.5H0.5V12.5Z" stroke="black"/>
<path d="M0.5 17.5H3C3.82843 17.5 4.5 18.1716 4.5 19V24C4.5 24.8284 3.82843 25.5 3 25.5H0.5V17.5Z" stroke="black"/>
<circle r="0.5" transform="matrix(1 0 0 -1 7.5 21.5)" fill="black"/>
</g>
<defs>
<clipPath id="clip0_1525_6238">
<rect width="30" height="43" fill="white"/>
</clipPath>
</defs>
</svg>
