<svg width="30" height="23" viewBox="0 0 30 23" fill="none" xmlns="http://www.w3.org/2000/svg">
<path d="M1.53198 1.79688H28.7713" stroke="#D0CFCE" stroke-width="0.5" stroke-miterlimit="10"/>
<path d="M21.9711 1.79688H28.6912" stroke="#9B9B9A" stroke-width="0.5" stroke-miterlimit="10"/>
<path d="M4.80823 13.0127H25.5667" stroke="#D0CFCE" stroke-width="0.5" stroke-miterlimit="10"/>
<path d="M21.9711 13.0127H25.6633" stroke="#9B9B9A" stroke-width="0.5" stroke-miterlimit="10"/>
<path d="M3.66833 9.27344H26.1007" stroke="#D0CFCE" stroke-width="0.5" stroke-miterlimit="10"/>
<path d="M21.9711 9.27344H26.4202" stroke="#9B9B9A" stroke-width="0.5" stroke-miterlimit="10"/>
<path d="M14.8942 1.48535V16.4402" stroke="#D0CFCE" stroke-width="0.5" stroke-miterlimit="10"/>
<path d="M11.1554 1.48535V16.4402" stroke="#D0CFCE" stroke-width="0.5" stroke-miterlimit="10"/>
<path d="M7.41675 1.48535V16.4402" stroke="#D0CFCE" stroke-width="0.5" stroke-miterlimit="10"/>
<path d="M3.67798 1.48535V19.569" stroke="#D0CFCE" stroke-width="0.5" stroke-miterlimit="10"/>
<path d="M18.6329 1.79688V16.4847" stroke="#D0CFCE" stroke-width="0.5" stroke-miterlimit="10"/>
<path d="M22.3716 1.49414V16.4848" stroke="#9B9B9A" stroke-width="0.5" stroke-miterlimit="10"/>
<path d="M26.1104 1.79688V19.0879" stroke="#9B9B9A" stroke-width="0.5" stroke-miterlimit="10"/>
<path d="M18.6329 3.35449V11.4552" stroke="#D0CFCE" stroke-width="0.5" stroke-miterlimit="10"/>
<path d="M2.60864 5.53418H27.703" stroke="#D0CFCE" stroke-width="0.5" stroke-miterlimit="10"/>
<path d="M21.8364 5.53418H27.9343" stroke="#9B9B9A" stroke-width="0.5" stroke-miterlimit="10"/>
<path d="M26.4202 9.23145L28.9812 11.7925" stroke="#9B9B9A" stroke-width="0.5" stroke-miterlimit="10"/>
<path d="M27.703 5.53418L28.9811 6.81496" stroke="#9B9B9A" stroke-width="0.5" stroke-miterlimit="10"/>
<path d="M25.2195 13.0127L28.9037 16.4844" stroke="#9B9B9A" stroke-width="0.5" stroke-miterlimit="10"/>
<path d="M3.63366 9.27344L1 11.9071" stroke="#D0CFCE" stroke-width="0.5" stroke-miterlimit="10"/>
<path d="M2.9906 5.52539L1 7.51599" stroke="#D0CFCE" stroke-width="0.5" stroke-miterlimit="10"/>
<path d="M4.96039 12.873L1.00269 16.6027" stroke="#D0CFCE" stroke-width="0.5" stroke-miterlimit="10"/>
<path d="M24.0968 16.7078L28.9037 1.75293" stroke="black" stroke-width="0.5" stroke-linecap="round" stroke-linejoin="round"/>
<path d="M28.9036 21.7817V1.21875H1.13025V21.7817" stroke="black" stroke-width="0.5" stroke-linecap="round" stroke-linejoin="round"/>
<path d="M28.9037 21.7811L24.0455 16.9229" stroke="black" stroke-width="0.5" stroke-linecap="round" stroke-linejoin="round"/>
<path d="M6.47131 16.708H24.0967" stroke="black" stroke-width="0.5" stroke-linecap="round" stroke-linejoin="round"/>
<path d="M1.13025 21.7811L5.98845 16.9229" stroke="black" stroke-width="0.5" stroke-linecap="round" stroke-linejoin="round"/>
<path d="M1.13025 1.21875L6.10809 16.485" stroke="black" stroke-width="0.5" stroke-linecap="round" stroke-linejoin="round"/>
<path d="M24.0968 16.7078L28.9037 1.75293" stroke="black" stroke-width="0.5" stroke-linecap="round" stroke-linejoin="round"/>
</svg>
