<svg width="16" height="30" viewBox="0 0 16 30" fill="none" xmlns="http://www.w3.org/2000/svg">
<path d="M1 0C1.26522 0 1.51957 0.105357 1.70711 0.292893C1.89464 0.48043 2 0.734784 2 1V2H14V1C14 0.734784 14.1054 0.48043 14.2929 0.292893C14.4804 0.105357 14.7348 0 15 0C15.2652 0 15.5196 0.105357 15.7071 0.292893C15.8946 0.48043 16 0.734784 16 1V29C16 29.2652 15.8946 29.5196 15.7071 29.7071C15.5196 29.8946 15.2652 30 15 30C14.7348 30 14.4804 29.8946 14.2929 29.7071C14.1054 29.5196 14 29.2652 14 29V28H2V29C2 29.2652 1.89464 29.5196 1.70711 29.7071C1.51957 29.8946 1.26522 30 1 30C0.734784 30 0.48043 29.8946 0.292893 29.7071C0.105357 29.5196 0 29.2652 0 29V1C0 0.734784 0.105357 0.48043 0.292893 0.292893C0.48043 0.105357 0.734784 0 1 0ZM2 26H14V22H2V26ZM2 20H14V16H2V20ZM2 14H14V10H2V14ZM2 8H14V4H2V8Z" fill="black"/>
</svg>
