<svg width="24" height="24" viewBox="0 0 24 24" fill="none" xmlns="http://www.w3.org/2000/svg">
<path d="M7.88375 21.6333L19.5 10.017L13.9825 4.49954L2.36625 16.1158C2.20633 16.2759 2.09273 16.4763 2.0375 16.6958L0.75 23.2495L7.3025 21.962C7.5225 21.907 7.72375 21.7933 7.88375 21.6333ZM23.25 6.26704C23.7187 5.79822 23.982 5.16245 23.982 4.49954C23.982 3.83663 23.7187 3.20086 23.25 2.73204L21.2675 0.749544C20.7987 0.280867 20.1629 0.0175781 19.5 0.0175781C18.8371 0.0175781 18.2013 0.280867 17.7325 0.749544L15.75 2.73204L21.2675 8.24954L23.25 6.26704Z" fill="black"/>
</svg>
