<svg width="9" height="24" viewBox="0 0 9 22" fill="none" xmlns="http://www.w3.org/2000/svg">
<mask id="path-1-inside-1" fill="white">
<path d="M8.65527 20C8.65527 19.4747 8.55181 18.9546 8.35079 18.4693C8.14977 17.984 7.85513 17.543 7.4837 17.1716C7.11227 16.8001 6.67131 16.5055 6.18601 16.3045C5.7007 16.1035 5.18056 16 4.65527 16C4.12999 16 3.60984 16.1035 3.12454 16.3045C2.63924 16.5055 2.19828 16.8001 1.82685 17.1716C1.45541 17.543 1.16077 17.984 0.959755 18.4693C0.758736 18.9546 0.655273 19.4747 0.655273 20L4.65527 20H8.65527Z"/>
</mask>
<path d="M8.65527 20C8.65527 19.4747 8.55181 18.9546 8.35079 18.4693C8.14977 17.984 7.85513 17.543 7.4837 17.1716C7.11227 16.8001 6.67131 16.5055 6.18601 16.3045C5.7007 16.1035 5.18056 16 4.65527 16C4.12999 16 3.60984 16.1035 3.12454 16.3045C2.63924 16.5055 2.19828 16.8001 1.82685 17.1716C1.45541 17.543 1.16077 17.984 0.959755 18.4693C0.758736 18.9546 0.655273 19.4747 0.655273 20L4.65527 20H8.65527Z" stroke="black" stroke-width="2" mask="url(#path-1-inside-1)"/>
<line x1="4.65527" x2="4.65527" y2="16.4062" stroke="black" stroke-width="2"/>
</svg>
